<svg width="1920" height="421" viewBox="0 0 1920 421" fill="none" xmlns="http://www.w3.org/2000/svg">
<mask id="mask0_1634_924" style="mask-type:alpha" maskUnits="userSpaceOnUse" x="-64" y="0" width="2095" height="421">
<path d="M-60.1188 1C-69.5976 2.18485 -52.8129 18.17 -50.9298 19.9186C-40.568 29.5402 -19.9885 36.8088 -6.60616 41.2696C23.9801 51.4651 59.474 51.8501 91.2301 52.0803C148.851 52.4978 208.07 49.6582 265.281 57.3504C315.177 64.0591 363.509 82.2628 407.982 105.593C438.43 121.566 465.161 140.382 482.17 170.997C498.012 199.513 471.388 218.213 442.441 217.078C416.862 216.075 408.748 192.61 432.306 180.997C476.803 159.062 544.03 171.244 588.79 183.97C630.282 195.767 669.257 217.294 710.68 230.186C789.506 254.718 872.85 269.829 955.405 270.861C1091.69 272.564 1227.87 261.786 1364.05 263.834C1456.49 265.224 1539.63 297.306 1621.75 336.805C1674.66 362.26 1723.82 394.067 1783.09 403.426C1820.46 409.326 1858.4 410.286 1896.07 413.156C1940.54 416.544 1984.73 419.372 2029.31 419.372" stroke="#FF4448" stroke-width="2" stroke-linecap="round" stroke-dasharray="4 4"/>
</mask>
<g mask="url(#mask0_1634_924)">
<rect x="-122.764" y="-19" width="2166" height="578" fill="#EAA294"/>
</g>
</svg>
