<svg width="1920" height="395" viewBox="0 0 1920 395" fill="none" xmlns="http://www.w3.org/2000/svg">
<mask id="mask0_1634_935" style="mask-type:alpha" maskUnits="userSpaceOnUse" x="-267" y="0" width="2293" height="395">
<path d="M2018.95 8.54183C2047.58 -25.8096 1950.97 66.8612 1914.36 92.5358C1817.36 160.561 1703.62 188.175 1587.73 206.641C1427.47 232.177 1266.62 230.654 1107.06 202.52C971.748 178.661 839.389 173.954 702.783 191.427C556.343 210.158 413.694 238.936 265.064 236.118C207.139 235.02 140.607 232.182 87.0916 206.958C69.0218 198.441 31.7619 175.448 56.9806 154.66C87.8269 129.232 104.081 168.038 83.6051 191.585C55.0996 224.367 14.7084 238.929 -24.7947 253.551C-81.7477 274.631 -141.098 292.432 -191.515 327.402C-219.438 346.77 -242.377 370.023 -266 393.646" stroke="#FF4448" stroke-width="2" stroke-linecap="round" stroke-dasharray="4 4"/>
</mask>
<g mask="url(#mask0_1634_935)">
<rect x="-286" y="-19.3594" width="2441" height="471" fill="#EAA294"/>
</g>
</svg>
