<svg width="1225" height="364" viewBox="0 0 1225 364" fill="none" xmlns="http://www.w3.org/2000/svg">
<g clip-path="url(#clip0_2645_651)">
<mask id="mask0_2645_651" style="mask-type:alpha" maskUnits="userSpaceOnUse" x="0" y="0" width="1225" height="365">
<path d="M1224 1C1211.61 2.35309 1203.19 8.22638 1195.55 10.6759C1177.56 16.4473 1161 22.6833 1141.45 28.1944C1069.82 48.3895 964.447 64.7459 867.695 78.6111C756.946 94.4822 639.012 109.007 520.483 121.898C349.545 140.489 140.202 155.26 38.7248 193.5C0.861633 207.768 -13.3739 226.635 18.9042 242.185C50.3667 257.342 96.5148 269.274 159.747 278.444C216.106 286.618 275.112 296.285 304.788 309.968C343.074 327.62 333.465 348.785 275.407 364" stroke="#FF4448" stroke-width="1.5" stroke-linecap="round" stroke-dasharray="3 3"/>
</mask>
<g mask="url(#mask0_2645_651)">
<path d="M1330.61 -17.3283H-83.4961V358.403H1330.61V-17.3283Z" fill="#605F5E"/>
</g>
</g>
<defs>
<clipPath id="clip0_2645_651">
<rect width="1225" height="364" fill="white"/>
</clipPath>
</defs>
</svg>
