<svg width="18" height="18" viewBox="0 0 18 18" fill="none" xmlns="http://www.w3.org/2000/svg">
<path d="M17.0518 0L18 0.948796L7.94818 11L7 10.0519L17.0518 0Z" fill="#605F5E"/>
<path d="M18 6.42857H16.7143V1.28571H11.5714V0H18V6.42857ZM14.7857 18H1.92857C0.835714 18 0 17.1643 0 16.0714V3.21429C0 2.12143 0.835714 1.28571 1.92857 1.28571H9V2.57143H1.92857C1.54286 2.57143 1.28571 2.82857 1.28571 3.21429V16.0714C1.28571 16.4571 1.54286 16.7143 1.92857 16.7143H14.7857C15.1714 16.7143 15.4286 16.4571 15.4286 16.0714V9H16.7143V16.0714C16.7143 17.1643 15.8786 18 14.7857 18Z" fill="#605F5E"/>
</svg>
